<svg width="195" height="195" viewBox="0 0 195 195" fill="none" xmlns="http://www.w3.org/2000/svg">
<rect width="195" height="195" fill="white"/>
<rect width="195" height="195" fill="white"/>
<rect width="195" height="195" fill="white"/>
<path d="M26.3193 114.946H19.622C19.0587 114.946 18.4328 114.383 18.7457 113.632L23.9408 96.8575C23.9408 96.4194 24.2537 96.1064 24.6919 96.1064H31.3891C31.9524 96.1064 32.5784 96.6698 32.2654 97.4209L27.2581 114.195C27.0704 114.633 26.7574 114.946 26.3193 114.946Z" fill="#141346"/>
<path d="M31.6391 118.952L33.1412 114.947C33.2664 114.508 33.7046 114.383 34.0175 114.383H37.2723C37.7104 114.383 38.0233 114.258 38.3363 113.945C38.6492 113.632 38.7744 113.382 38.7744 112.881V75.5142C38.7744 74.9509 39.2126 74.4502 39.8385 74.4502H46.7861C47.3494 74.4502 47.8501 74.8883 47.8501 75.5142V114.195C47.8501 116.136 47.099 117.888 45.7846 119.078C44.7206 119.954 43.5313 120.392 42.0917 120.392H32.5779C31.8269 120.267 31.3887 119.703 31.6391 118.952Z" fill="#141346"/>
<path d="M134.289 95.6065H124.212C123.774 95.6065 123.523 95.2935 123.523 94.8554V89.5978C123.523 89.1596 123.774 88.8467 124.212 88.8467H173.095C173.534 88.8467 173.784 89.1596 173.784 89.5978V94.8554C173.784 95.2935 173.534 95.6065 173.095 95.6065H161.641C161.203 95.6065 160.953 95.9195 160.953 96.3576V112.569C160.953 113.195 161.078 113.633 161.516 114.071C161.954 114.509 162.33 114.697 162.893 114.697H175.536C176.1 114.697 176.35 115.323 176.1 115.761L174.034 120.393C173.909 120.705 173.596 120.831 173.471 120.831H158.637C157.823 120.831 157.01 120.705 156.321 120.205C155.633 119.892 154.944 119.454 154.443 118.828C153.88 118.202 153.504 117.451 153.192 116.7C152.941 115.949 152.628 115.072 152.628 114.133V96.3576C152.628 95.9195 152.378 95.6065 151.94 95.6065H144.491C144.241 95.6065 143.928 95.7317 143.928 96.0446L134.039 120.267C133.914 120.58 133.601 120.705 133.475 120.705H126.277C125.714 120.705 125.464 120.08 125.714 119.641L135.228 96.6705C135.103 96.0446 134.852 95.6065 134.289 95.6065Z" fill="#141346"/>
<path d="M126.276 75.3896H171.404C171.843 75.3896 172.093 75.64 172.093 76.0781V80.8976C172.093 81.2732 171.843 81.5861 171.404 81.5861H126.276C125.838 81.5861 125.588 81.3358 125.588 80.8976V76.0781C125.588 75.7026 125.901 75.3896 126.276 75.3896Z" fill="#141346"/>
<path d="M72.3851 110.44V120.141C72.3851 120.454 72.6981 120.705 72.9485 120.705H81.0853C81.3982 120.705 81.6486 120.392 81.6486 120.141V96.4194C78.5816 99.9871 76.3909 103.179 74.7636 105.871C73.8247 107.623 73.011 109.188 72.3851 110.44ZM88.4084 89.2841H94.9179C95.4812 89.2841 95.7942 89.8474 95.669 90.3481L83.6515 119.828C83.5263 120.267 83.7767 120.892 84.4026 120.892H92.1013C92.4142 120.892 92.6646 120.767 92.8524 120.454L100.989 100.613C101.114 100.05 102.053 100.05 102.304 100.613L110.628 120.454C110.753 120.767 111.066 120.892 111.379 120.892H119.078C119.641 120.892 119.954 120.329 119.829 119.828L108.688 93.1647C108.563 92.8518 108.25 92.7266 107.937 92.7266H105.245C104.682 92.7266 104.369 92.1633 104.494 91.6625L105.245 89.7222C105.371 89.4093 105.684 89.2841 105.684 89.4093H119.892C120.33 89.4093 120.768 88.9711 120.643 88.533L118.139 76.2652C118.139 75.9522 117.701 75.7019 117.388 75.7019H110.566C110.127 75.7019 109.689 76.14 109.815 76.5781L111.317 82.0861C111.442 82.5243 111.004 82.9624 110.566 82.9624H106.56C106.122 82.9624 105.809 82.6494 105.809 82.2113V74.763C105.809 74.3249 105.496 74.0119 105.058 74.0119H97.2337C96.7956 74.0119 96.4826 74.3249 96.4826 74.763V82.1487C96.4826 82.5869 96.1697 82.8998 95.7316 82.8998H93.2279C93.3531 83.3379 93.2279 83.7761 93.1653 84.089C93.0402 84.402 92.915 84.7149 92.7272 84.9653C92.4142 85.4034 92.0387 85.8416 91.7258 86.1545C91.6006 86.2797 91.4754 86.4049 91.3502 86.5301C91.2876 86.5927 91.2876 86.5927 91.225 86.6553H91.1624C90.2861 87.5315 89.3473 88.4078 88.4084 89.2841ZM81.7112 85.2157V74.45C81.7112 74.1371 81.3982 73.8867 81.1479 73.8867H73.011C72.5729 73.8867 72.2599 74.1997 72.2599 74.6378V80.5839C72.2599 80.8969 71.947 81.1473 71.5088 81.1473L64.8116 80.3962C64.3735 80.271 64.0605 80.5214 64.0605 80.9595V86.1545C64.0605 86.4675 64.3735 86.7179 64.6238 86.7179L71.5715 87.5941C71.8844 87.5941 72.1348 87.9071 72.1348 88.1574V92.5388C74.701 90.0352 77.2672 88.0323 79.5831 86.4049C80.3968 86.0294 81.0853 85.5912 81.7112 85.2157Z" fill="#141346"/>
<path d="M64.2486 103.617C64.2486 103.617 60.9312 97.233 59.9298 96.3567C59.0535 95.4805 57.6139 95.0423 56.1743 95.9186C54.7347 96.6697 52.4189 97.3582 53.8585 100.55C55.2981 103.742 59.2413 113.757 63.4349 117.2C67.6285 120.517 68.8177 115.197 69.381 114.007C69.9444 112.693 73.3242 100.988 90.4116 85.4659C90.4116 85.4659 93.6037 82.7119 90.8497 82.7119C88.0957 82.8371 74.889 88.7832 65.0622 103.555C64.6867 103.617 64.3738 104.243 64.2486 103.617Z" fill="#E31810"/>
</svg>
