<svg width="512" height="512" viewBox="0 0 512 512" fill="none" xmlns="http://www.w3.org/2000/svg">
<g clip-path="url(#clip0_19379_48563)">
<rect width="512" height="512" fill="url(#paint0_linear_19379_48563)"/>
<g clip-path="url(#clip1_19379_48563)">
<path d="M178.116 245.811C176.116 250.162 176.176 255.244 178.198 260.819C180.224 266.403 184.194 272.396 189.856 278.428C201.177 290.49 219.07 302.505 240.869 311.539C262.668 320.573 284.112 324.86 301.125 324.541C309.633 324.381 316.959 323.07 322.649 320.683C328.329 318.301 332.294 314.886 334.294 310.535C336.294 306.183 336.234 301.101 334.212 295.527C332.186 289.942 328.217 283.95 322.554 277.918C311.233 265.856 293.34 253.841 271.541 244.807C249.743 235.773 228.298 231.485 211.286 231.805C202.777 231.965 195.451 233.275 189.761 235.662C184.081 238.045 180.116 241.459 178.116 245.811Z" stroke="url(#paint1_linear_19379_48563)" stroke-width="3"/>
<path opacity="0.8" d="M114.689 258.274C111.453 265.317 111.657 273.544 115.056 282.529C118.458 291.523 125.026 301.164 134.309 310.864C152.871 330.259 182.053 349.644 217.474 364.337C252.895 379.03 287.695 386.185 315.283 385.933C329.08 385.807 340.985 383.829 350.239 380.085C359.483 376.344 365.971 370.893 369.207 363.85C372.442 356.807 372.238 348.58 368.839 339.596C365.437 330.601 358.869 320.96 349.586 311.261C331.024 291.865 301.842 272.48 266.421 257.787C231 243.094 196.2 235.94 168.613 236.191C154.816 236.317 142.91 238.295 133.656 242.04C124.412 245.78 117.924 251.231 114.689 258.274Z" stroke="url(#paint2_linear_19379_48563)" stroke-width="3.5"/>
<path opacity="0.6" d="M48.8555 270.614C44.4068 280.298 44.8031 291.634 49.6488 304.007C54.4984 316.391 63.7578 329.672 76.771 343.044C102.792 369.783 143.541 396.601 192.874 417.065C242.207 437.528 290.608 447.691 328.934 447.644C348.101 447.62 364.645 445.042 377.499 440.002C390.343 434.966 399.36 427.535 403.809 417.851C408.258 408.167 407.861 396.832 403.016 384.458C398.166 372.074 388.907 358.793 375.893 345.421C349.873 318.682 309.123 291.864 259.79 271.401C210.457 250.937 162.057 240.774 123.731 240.822C104.564 240.846 88.0191 243.423 75.1651 248.463C62.3216 253.499 53.3043 260.93 48.8555 270.614Z" stroke="url(#paint3_linear_19379_48563)" stroke-width="4"/>
<path d="M504.732 812.507C667.866 555.255 564.984 258.166 497 175C503.638 192.746 479.835 215.516 466.351 222.421C579.749 479.361 508.307 666.749 457.345 727.883L504.732 812.507Z" fill="url(#paint4_linear_19379_48563)"/>
<path d="M161.917 139.94C161.573 126.302 171.045 121.441 176.312 120.292C265.787 104.906 429.383 204.595 438.746 227.221C448.109 249.846 421.571 280.703 292.733 229.788C189.662 189.055 162.576 152.917 161.917 139.94Z" fill="url(#paint5_radial_19379_48563)"/>
<path d="M486.831 204.671C470.695 243.59 374.127 224.172 298.66 192.884C181.903 144.477 145.476 99.7242 158.416 68.5129C171.356 37.3017 249.021 39.8505 345.52 79.8579C471.874 132.243 499.771 173.46 486.831 204.671Z" fill="url(#paint6_radial_19379_48563)"/>
<path d="M486.894 165.336C480.925 154.115 475.524 155.045 472 154C473.5 155.5 477.587 159.681 484.775 171.955C493 186 489.249 199.842 485.947 206.804C502.392 187.631 500.279 177.758 497.167 175.218L486.894 165.336Z" fill="url(#paint7_linear_19379_48563)"/>
<path opacity="0.8" d="M159 67C172 115.5 346.5 213.5 486 206" stroke="#96A5D0"/>
<path opacity="0.8" d="M164 130C174.933 170.705 319.683 251.295 437 245" stroke="#96A5D0"/>
</g>
</g>
<defs>
<linearGradient id="paint0_linear_19379_48563" x1="-2.64657e-06" y1="0.804007" x2="617.74" y2="242.109" gradientUnits="userSpaceOnUse">
<stop stop-color="#5C056A"/>
<stop offset="1" stop-color="#020C66"/>
</linearGradient>
<linearGradient id="paint1_linear_19379_48563" x1="192.957" y1="210.325" x2="189.192" y2="337.615" gradientUnits="userSpaceOnUse">
<stop stop-color="#FFD840"/>
<stop offset="0.558578" stop-color="#F3ACFF"/>
<stop offset="1" stop-color="#8AECFF"/>
<stop offset="1" stop-color="#8AECFF"/>
</linearGradient>
<linearGradient id="paint2_linear_19379_48563" x1="138.7" y1="202.453" x2="130.955" y2="404.227" gradientUnits="userSpaceOnUse">
<stop stop-color="#FFD840"/>
<stop offset="0.558578" stop-color="#F3ACFF"/>
<stop offset="1" stop-color="#8AECFF"/>
<stop offset="1" stop-color="#8AECFF"/>
</linearGradient>
<linearGradient id="paint3_linear_19379_48563" x1="81.8851" y1="194.813" x2="69.3486" y2="470.068" gradientUnits="userSpaceOnUse">
<stop stop-color="#FFD840"/>
<stop offset="0.558578" stop-color="#F3ACFF"/>
<stop offset="1" stop-color="#8AECFF"/>
<stop offset="1" stop-color="#8AECFF"/>
</linearGradient>
<linearGradient id="paint4_linear_19379_48563" x1="593.803" y1="418.336" x2="514.367" y2="436.635" gradientUnits="userSpaceOnUse">
<stop stop-color="#93A2CE"/>
<stop offset="1" stop-color="#D4D8ED"/>
</linearGradient>
<radialGradient id="paint5_radial_19379_48563" cx="0" cy="0" r="1" gradientUnits="userSpaceOnUse" gradientTransform="translate(250.651 157.985) rotate(113.021) scale(65.797 529.362)">
<stop stop-color="#7688C2"/>
<stop offset="0.64593" stop-color="#D4DAEE"/>
<stop offset="1" stop-color="#E0E4F3"/>
</radialGradient>
<radialGradient id="paint6_radial_19379_48563" cx="0" cy="0" r="1" gradientUnits="userSpaceOnUse" gradientTransform="translate(256.332 106.609) rotate(111.384) scale(58.3031 381.592)">
<stop stop-color="#B1BBDD"/>
<stop offset="0.547482" stop-color="#D4DAEE"/>
<stop offset="1" stop-color="#E0E4F3"/>
</radialGradient>
<linearGradient id="paint7_linear_19379_48563" x1="490.03" y1="159.874" x2="489.5" y2="201" gradientUnits="userSpaceOnUse">
<stop stop-color="#4D576B"/>
<stop offset="1" stop-color="#2B3344"/>
</linearGradient>
<clipPath id="clip0_19379_48563">
<rect width="512" height="512" fill="white"/>
</clipPath>
<clipPath id="clip1_19379_48563">
<rect width="512" height="512" fill="white"/>
</clipPath>
</defs>
</svg>
